{
	"asset":{
		"generator":"Khronos glTF Blender I/O v3.5.30",
		"version":"2.0"
	},
	"extensionsUsed":[
		"KHR_materials_clearcoat"
	],
	"scene":0,
	"scenes":[
		{
			"name":"Scene",
			"nodes":[
				2
			]
		}
	],
	"nodes":[
		{
			"mesh":0,
			"name":"Object_2",
			"translation":[
				0.11347109079360962,
				-0.014328139834105968,
				35.967193603515625
			]
		},
		{
			"children":[
				0
			],
			"name":"Drop V2.obj.cleaner.materialmerger.gles"
		},
		{
			"children":[
				1
			],
			"name":"Sketchfab_model",
			"rotation":[
				-0.70710688829422,
				0,
				0,
				0.7071066498756409
			]
		}
	],
	"materials":[
		{
			"doubleSided":true,
			"extensions":{
				"KHR_materials_clearcoat":{
					"clearcoatFactor":0.284953236579895,
					"clearcoatRoughnessFactor":0.03999999910593033
				}
			},
			"name":"None",
			"pbrMetallicRoughness":{
				"baseColorTexture":{
					"index":0
				},
				"metallicFactor":0,
				"roughnessFactor":0.260572224855423
			}
		}
	],
	"meshes":[
		{
			"name":"Object_0",
			"primitives":[
				{
					"attributes":{
						"POSITION":0,
						"TEXCOORD_0":1,
						"NORMAL":2
					},
					"indices":3,
					"material":0
				}
			]
		}
	],
	"textures":[
		{
			"sampler":0,
			"source":0
		}
	],
	"images":[
		{
			"mimeType":"image/jpeg",
			"name":"Image_0",
			"uri":"Image_0.jpg"
		}
	],
	"accessors":[
		{
			"bufferView":0,
			"componentType":5126,
			"count":15380,
			"max":[
				28.807119369506836,
				28.825305938720703,
				54.764808654785156
			],
			"min":[
				-28.844884872436523,
				-28.826396942138672,
				-34.94972229003906
			],
			"type":"VEC3"
		},
		{
			"bufferView":1,
			"componentType":5126,
			"count":15380,
			"type":"VEC2"
		},
		{
			"bufferView":2,
			"componentType":5126,
			"count":15380,
			"type":"VEC3"
		},
		{
			"bufferView":3,
			"componentType":5123,
			"count":92268,
			"type":"SCALAR"
		}
	],
	"bufferViews":[
		{
			"buffer":0,
			"byteLength":184560,
			"byteOffset":0,
			"target":34962
		},
		{
			"buffer":0,
			"byteLength":123040,
			"byteOffset":184560,
			"target":34962
		},
		{
			"buffer":0,
			"byteLength":184560,
			"byteOffset":307600,
			"target":34962
		},
		{
			"buffer":0,
			"byteLength":184536,
			"byteOffset":492160,
			"target":34963
		}
	],
	"samplers":[
		{
			"magFilter":9729,
			"minFilter":9987
		}
	],
	"buffers":[
		{
			"byteLength":676696,
			"uri":"ver2.bin"
		}
	]
}
